<svg width="267" height="67" viewBox="0 0 267 67" fill="none" xmlns="http://www.w3.org/2000/svg">
<g clip-path="url(#clip0_3213_9184)">
<mask id="mask0_3213_9184" style="mask-type:luminance" maskUnits="userSpaceOnUse" x="-141" y="0" width="403" height="59">
<path d="M261.311 0H-140.75V58.8435H261.311V0Z" fill="white"/>
</mask>
<g mask="url(#mask0_3213_9184)">
<path d="M151.588 0L120.132 4.15031V13.5517L151.588 10.7166V0Z" fill="#E40038"/>
<path d="M55.4781 34.2392C55.4781 39.9447 57.1637 41.9191 62.5722 41.9191C67.9807 41.9191 69.638 39.9351 69.638 34.2392C69.638 28.5434 68.0061 26.5594 62.5722 26.5594C57.1377 26.5594 55.4781 28.505 55.4781 34.2392ZM45.9746 34.156C45.9746 23.7019 51.7263 18.918 62.5722 18.918C73.4181 18.918 79.1952 23.7019 79.1952 34.156C79.1952 44.6102 73.4815 49.5605 62.5722 49.5605C51.6629 49.5605 45.9746 44.6102 45.9746 34.156Z" fill="#00234D"/>
<path d="M145.633 21.5451L120.132 4.15991V13.5389L128.083 18.9788L129.648 19.9003C126.791 19.9355 125.423 20.5211 124.049 21.3595C120.122 23.7499 118.084 27.9546 118.084 34.1592C118.084 44.6134 123.798 49.5637 134.682 49.5637C145.567 49.5637 151.309 44.6134 151.309 34.1592C151.309 28.1082 149.366 23.9707 145.633 21.5451ZM134.682 41.9191C129.286 41.9191 127.588 39.9351 127.588 34.2392C127.588 28.5433 129.274 26.5594 134.682 26.5594C140.091 26.5594 141.748 28.5049 141.748 34.2392C141.748 39.9735 140.119 41.9191 134.682 41.9191Z" fill="#00234D"/>
<path d="M29.609 18.8796C24.4727 18.8796 20.2992 22.0796 19.2644 23.4044V19.5644H10.1514V58.8436H19.2073V44.8727C20.2704 46.2262 24.4156 49.3685 29.5801 49.3685C38.1503 49.3685 42.8701 44.6711 42.8701 34.1017C42.8701 23.5324 38.1567 18.8796 29.609 18.8796ZM26.3648 41.7591C20.969 41.7591 19.2707 39.7784 19.2707 34.0793C19.2707 28.3802 20.9563 26.3995 26.3648 26.3995C31.7733 26.3995 33.4271 28.3515 33.4271 34.0793C33.4271 39.8072 31.7987 41.7463 26.3648 41.7463V41.7591Z" fill="#00234D"/>
<path d="M213.623 19.5771V30.2425H201.6V19.5771H192.487V48.4405H201.6V37.6279H213.623V48.4405H222.739V19.5771H213.623Z" fill="#00234D"/>
<path d="M154.444 34.1017C154.444 44.6615 159.158 49.3685 167.735 49.3685C172.896 49.3685 177.041 46.2262 178.104 44.8727V48.4438H187.164V19.5452H178.051V23.3851C177.009 22.0796 172.835 18.8796 167.703 18.8796C159.155 18.8796 154.444 23.5611 154.444 34.1017ZM163.884 34.0601C163.884 28.3258 165.513 26.3803 170.95 26.3803C176.388 26.3803 178.041 28.3322 178.041 34.0601C178.041 39.788 176.356 41.7399 170.95 41.7399C165.545 41.7399 163.881 39.7656 163.881 34.0601H163.884Z" fill="#00234D"/>
<path d="M105.639 37.775C104.928 40.7926 103.024 41.9189 98.8969 41.9189C93.5011 41.9189 91.8057 39.935 91.8057 34.2391C91.8057 28.5432 93.5011 26.5593 98.8969 26.5593C103.024 26.5593 104.928 27.6825 105.642 30.7192L115.145 29.9928C113.726 22.441 108.162 18.9307 98.8969 18.9307C88.051 18.9307 82.3027 23.7146 82.3027 34.1687C82.3027 44.6229 88.0158 49.5732 98.8969 49.5732C108.156 49.5732 113.663 45.9893 115.117 38.511L105.639 37.775Z" fill="#00234D"/>
<path d="M261.311 48.4373L246.888 33.2824L260.537 19.5771H249.262L237.033 32.1145V19.5771H228.081V48.4373H237.033V38.3447V35.8456V35.148L249.596 48.4373H261.311Z" fill="#00234D"/>
</g>
</g>
<defs>
<clipPath id="clip0_3213_9184">
<rect width="267" height="67" fill="white"/>
</clipPath>
</defs>
</svg>
