<svg width="780" height="265" viewBox="0 0 780 265" fill="none" xmlns="http://www.w3.org/2000/svg">
<g clip-path="url(#clip0_3213_9267)">
<path fill-rule="evenodd" clip-rule="evenodd" d="M312.832 0H711.988C734.698 20 757.409 39.881 780 59.881H528.878V181.071H515.918V158.571L475.491 179.762L511.875 199.048V204.524L472.994 184.167V227.381L511.875 207.024V212.5L475.491 231.548L511.875 250.833V257.738C511.875 259.405 513.183 260.833 514.967 260.833H528.878V265H460.152V59.881H306.412V0H312.832ZM713.89 156.071L728.159 143.81L735.53 137.5V131.548H713.771H692.012V137.5L699.384 143.81L713.89 156.071ZM322.939 46.9048L345.768 12.9762H319.253V46.9048H322.939ZM355.875 12.9762L376.683 44.0476L397.491 12.9762H355.875ZM407.716 12.9762L428.524 44.0476L449.332 12.9762H407.716ZM459.796 12.9762L480.485 44.0476L501.293 12.9762H459.796ZM511.637 12.9762L532.326 44.0476L553.134 12.9762H511.637ZM563.598 12.9762L584.406 44.0476L605.213 12.9762H563.598ZM615.439 12.9762L636.128 44.0476L656.936 12.9762H615.439ZM667.399 12.9762L688.207 44.0476L708.421 14.0476L707.232 13.0952H667.399V12.9762ZM711.988 17.1429L692.012 46.9048H745.756L711.988 17.1429ZM684.402 46.9048L662.287 13.9286L640.171 46.9048H684.402ZM632.323 46.9048L610.207 13.9286L588.091 46.9048H632.323ZM580.601 46.9048L558.485 13.9286L536.369 46.9048H580.601ZM528.521 46.9048L506.406 13.9286L484.171 47.2619H516.037V46.9048H528.521ZM480.96 52.0238L480.604 52.619L480.247 52.0238H473.232V71.3095L509.973 52.0238H480.96ZM476.918 47.2619L454.683 13.9286L432.567 46.9048H473.113V47.2619H476.918ZM424.838 46.9048L402.723 13.9286L380.607 46.9048H424.838ZM372.878 46.9048L350.762 13.9286L328.646 46.9048H372.878ZM528.878 187.143H518.177V254.524H528.878V187.143ZM514.491 101.667L473.113 79.881V123.333L514.491 101.667ZM515.918 54.4048L475.491 75.7143L515.918 96.9048V54.4048ZM515.918 106.429L475.491 127.619L515.918 148.929V106.429ZM503.79 252.024L473.232 235.952V252.024H503.79ZM473.113 175.476L514.491 153.69L473.113 131.905V175.476Z" fill="#E0BC82"/>
<path fill-rule="evenodd" clip-rule="evenodd" d="M730.893 64.5239V131.667H727.683V64.5239H730.893ZM697.006 131.667V64.5239H700.216V131.667H697.006ZM670.253 188.453H674.058L713.89 157.5L753.723 188.453H757.527V201.429H670.253V188.453ZM678.101 188.453H749.799L714.009 160.833L678.101 188.453ZM670.253 208.691H757.527V221.667H670.253V208.691Z" fill="#E0BC82"/>
<path fill-rule="evenodd" clip-rule="evenodd" d="M64.2073 165.952H47.0854V118.452L14.7439 165.952H0V88.9284H17.3598V136.071L49.7012 88.9284H63.9695V165.952H64.2073ZM557.534 229.286L546.832 240.714H531.969V208.333H557.534V223.452H536.369V225.952H557.534V229.286ZM574.418 234.405V226.547H563.716V208.333H574.418V191.309H531.969V184.047H514.966V257.738H551.707L574.418 234.405ZM180.851 234.286C177.997 242.857 173.241 249.524 166.701 254.524C160.043 259.643 152.195 262.381 143.515 262.381C132.101 262.381 122.588 258.571 114.741 250.714C106.774 242.857 102.97 233.333 102.97 222.143C102.97 211.071 106.774 201.786 114.741 193.928C122.588 186.309 131.863 182.5 143.159 182.5C152.314 182.5 160.28 185 166.939 189.881C173.598 194.881 178.354 201.905 180.851 210.714H162.183C158.021 202.262 151.482 198.095 143.159 198.095C136.5 198.095 131.149 200.357 126.988 205.119C122.826 209.643 120.686 215.476 120.686 221.905C120.686 228.333 122.826 234.286 127.107 239.047C131.268 244.047 136.857 246.428 143.277 246.428C151.838 246.428 158.378 242.381 162.302 234.166L180.851 234.286ZM230.195 199.166H214.976V260.595H197.378V199.166H182.277V183.69H230.076L230.195 199.166ZM255.878 260.595H238.518V183.571H265.39C274.189 183.571 280.848 185.714 285.723 190C291.073 194.524 293.57 201.071 293.57 209.643C293.57 218.214 290.716 224.762 285.128 228.928C280.015 232.738 273.119 234.643 264.201 234.643H255.997V260.595H255.878ZM255.878 199.166V219.166H263.726C272.524 219.166 276.686 215.714 276.686 209.047C276.686 202.381 272.287 199.166 263.726 199.166H255.878ZM338.991 262.143C327.695 262.143 318.183 258.333 310.454 250.476C302.726 242.619 298.683 233.333 298.683 222.024C298.683 210.714 302.726 201.428 310.454 193.571C318.302 185.952 327.814 182.143 338.991 182.143C350.405 182.143 359.799 185.952 367.527 193.571C375.256 201.19 379.18 210.714 379.18 222.024C379.18 233.333 375.375 242.857 367.527 250.476C359.918 258.333 350.405 262.143 338.991 262.143ZM338.991 197.976C332.57 197.976 327.219 200.238 322.82 205.238C318.421 210 316.399 215.595 316.399 222.024C316.399 228.452 318.54 234.286 322.82 239.047C327.219 243.809 332.57 246.309 338.991 246.309C345.412 246.309 351 243.809 355.399 238.928C359.561 234.166 361.463 228.571 361.463 221.905C361.463 215.238 359.323 209.643 355.162 204.881C351 200.357 345.412 197.976 338.991 197.976ZM453.851 260.595H436.729V213.095L404.149 260.595H389.524V183.571H407.003V230.714L439.344 183.571H453.613V260.595H453.851ZM153.027 139.405C150.174 147.857 145.418 154.643 138.878 159.643C132.22 164.762 124.372 167.5 115.692 167.5C104.277 167.5 94.7652 163.69 86.9177 155.833C78.9512 147.976 75.1463 138.452 75.1463 127.262C75.1463 116.19 78.9512 106.905 86.9177 99.0474C94.7652 91.4284 104.04 87.6189 115.335 87.6189C124.491 87.6189 132.457 90.1189 139.116 95.2379C145.774 100.238 150.53 107.262 153.027 116.071H134.36C130.198 107.619 123.659 103.452 115.335 103.452C108.915 103.452 103.326 105.714 99.1646 110.476C95.003 115 92.8628 120.833 92.8628 127.262C92.8628 133.69 95.003 139.643 99.1646 144.405C103.326 149.405 108.915 151.786 115.335 151.786C123.896 151.786 130.436 147.738 134.36 139.524H153.027V139.405ZM224.845 165.952H204.037L181.207 131.071V165.952H163.848V88.9284H181.207V124.643L204.988 88.9284H223.893L197.021 127.262L224.845 165.952ZM294.759 88.9284L262.893 165.952H244.939L252.311 147.5L226.034 88.9284H244.701L261.466 127.857L276.091 88.9284H294.759ZM371.332 139.405H352.427C348.265 147.619 341.963 151.666 333.402 151.666C326.982 151.666 321.631 149.166 317.232 144.286C313.07 139.286 310.811 133.571 310.811 127.143C310.811 120.476 312.951 114.881 317.113 110.357C321.274 105.833 326.625 103.333 333.284 103.333C341.726 103.333 348.146 107.5 352.308 115.952H370.976C368.36 107.143 363.723 100.357 357.064 95.1189C350.405 90.1189 342.439 87.4998 333.284 87.4998C322.226 87.4998 312.713 91.3093 304.866 98.9284C297.018 106.547 293.213 115.952 293.213 127.143C293.213 138.571 297.256 147.976 304.985 155.714C312.951 163.571 322.463 167.381 333.759 167.381C342.558 167.381 350.287 164.762 356.945 159.524C363.723 154.524 368.479 147.857 371.332 139.405ZM456.348 139.405C453.494 147.857 448.738 154.643 442.198 159.643C435.54 164.762 427.692 167.5 419.012 167.5C407.598 167.5 398.085 163.69 390.238 155.833C382.271 147.976 378.466 138.452 378.466 127.262C378.466 116.19 382.271 106.905 390.238 99.0474C398.085 91.4284 407.36 87.6189 418.655 87.6189C427.811 87.6189 435.777 90.1189 442.436 95.2379C449.094 100.238 453.851 107.262 456.348 116.071H437.442C433.28 107.619 426.741 103.452 418.418 103.452C411.997 103.452 406.409 105.714 402.247 110.476C398.085 115 395.945 120.833 395.945 127.262C395.945 133.69 398.085 139.643 402.247 144.405C406.409 149.405 411.997 151.786 418.418 151.786C426.979 151.786 433.518 147.738 437.442 139.524H456.348V139.405ZM588.924 142.262C588.924 157.857 579.53 165.952 560.744 165.952H535.061V88.9284H560.387C567.64 88.9284 573.348 90.476 577.509 93.4522C582.503 96.9046 584.881 102.024 584.881 108.928C584.881 116.19 582.027 121.309 576.082 124.524C584.762 127.262 588.924 133.095 588.924 142.262ZM568.116 111.428C568.116 106.666 565.024 104.405 559.198 104.405H551.826V119.643H558.247C564.905 119.643 568.116 116.905 568.116 111.428ZM551.826 133.095V150.476H561.219C568.473 150.476 572.04 147.619 572.04 141.905C572.04 136.19 568.591 133.095 561.576 133.095H551.826ZM636.366 167.5C625.07 167.5 615.558 163.69 607.829 155.833C599.982 147.976 596.058 138.69 596.058 127.381C596.058 116.071 599.863 106.786 607.829 98.9284C615.677 91.3093 625.189 87.2617 636.366 87.2617C647.543 87.2617 657.174 91.0712 664.902 98.6903C672.75 106.309 676.555 115.833 676.555 127.143C676.555 138.452 672.75 147.976 664.902 155.595C657.293 163.452 647.78 167.5 636.366 167.5ZM636.366 103.214C629.945 103.214 624.594 105.476 620.195 110.476C615.796 115.238 613.774 120.833 613.774 127.262C613.774 133.69 615.915 139.524 620.195 144.286C624.594 149.047 629.945 151.547 636.366 151.547C642.787 151.547 648.375 149.047 652.774 144.166C656.936 139.405 659.076 133.809 659.076 127.143C659.076 120.476 656.936 114.881 652.774 110.119C648.375 105.476 643.024 103.214 636.366 103.214Z" fill="#F5F8FC"/>
</g>
<defs>
<clipPath id="clip0_3213_9267">
<rect width="780" height="265" fill="white"/>
</clipPath>
</defs>
</svg>
