<svg xmlns="http://www.w3.org/2000/svg" width="64" height="134" viewBox="0 0 64 134" fill="none">
<g clip-path="url(#clip0_3213_9278)">
<path d="M42.88 42.7278V59.7932C38.3573 63.8564 33.2587 67.4064 28.2453 70.4431C27.8827 70.6569 27.5413 70.8708 27.1787 71.0633V39.52L42.88 42.7064V42.7278Z" fill="#EBEBF6"/>
<path d="M23.0613 32.2489V73.4369C12.736 79.0398 3.52 82.3759 0.810669 83.3169V27.5869L23.0613 32.2275V32.2489Z" fill="#EBEBF6"/>
<path opacity="0.2" d="M46.656 106.605C42.0267 111.438 36.5013 115.651 30.9333 119.222C15.7227 128.953 0 134 0 134V124.184C0 124.184 5.632 122.516 13.3973 119.222C17.3227 117.554 21.7813 115.48 26.3253 112.999C26.9653 112.657 27.6053 112.294 28.2453 111.93C34.7733 108.209 41.344 103.633 46.656 98.2435C53.248 91.5499 57.8987 83.5946 58.048 74.3775C58.048 73.8857 58.048 73.3938 58.048 72.9233C58.112 73.18 58.1547 73.4152 58.1973 73.6718C60.7573 86.6741 55.2107 97.7089 46.656 106.627V106.605Z" fill="#E0BC82"/>
<path opacity="0.4" d="M58.1973 73.6505C58.1547 73.8858 58.0907 74.121 58.048 74.3563C56.3627 81.7556 52.1173 88.2994 46.656 93.9879C41.28 99.5909 34.7307 104.36 28.2453 108.273C27.6053 108.658 26.9653 109.043 26.3253 109.407C18.4747 113.962 10.9227 117.255 5.93067 119.201C2.28267 120.655 0 121.404 0 121.404V111.588C0 111.588 0.0853333 111.588 0.213333 111.524C1.94133 110.989 13.8027 107.247 26.3253 100.382C26.9653 100.04 27.6053 99.6764 28.2453 99.3128C34.7733 95.5918 41.344 91.0154 46.656 85.6263C53.248 78.9327 57.8987 70.9774 58.048 61.7603C58.048 61.2685 58.048 60.7766 58.048 60.3062C58.112 60.5628 58.1547 60.798 58.1973 61.0546C59.072 65.4814 59.008 69.6943 58.1973 73.6505Z" fill="#E0BC82"/>
<path opacity="0.6" d="M58.1973 61.0545C58.1547 61.2897 58.0907 61.5249 58.048 61.7602C56.3627 69.1381 52.1173 75.7034 46.656 81.3918C41.28 86.9948 34.7307 91.7637 28.2453 95.6772C27.6053 96.0621 26.9653 96.4471 26.3253 96.8106C13.76 104.103 1.96267 108.145 0.213333 108.722C0.064 108.765 0 108.808 0 108.808V98.9919C0 98.9919 0.0853333 98.9919 0.213333 98.9277C1.94133 98.3931 13.8027 94.6507 26.3253 87.786C26.9653 87.4439 27.6053 87.0803 28.2453 86.7168C34.7733 82.9957 41.344 78.4407 46.656 73.0516C53.248 66.358 57.8987 58.4027 58.048 49.1856C58.048 48.6938 58.048 48.2233 58.048 47.7314C58.112 47.9881 58.1547 48.2233 58.1973 48.4799C59.072 52.9067 59.008 57.1196 58.1973 61.0972V61.0545Z" fill="#E0BC82"/>
<path opacity="0.8" d="M58.1973 48.4372C58.1547 48.6724 58.0907 48.9076 58.048 49.1429C56.3627 56.5422 52.1173 63.0861 46.656 68.7745C45.4613 70.0363 44.2027 71.2339 42.88 72.41C38.3573 76.4732 33.2587 80.0232 28.2453 83.0599C27.8827 83.2737 27.5413 83.4876 27.1787 83.6801C26.9013 83.8512 26.6027 84.0222 26.3253 84.1933C25.2373 84.8349 24.128 85.455 23.0613 86.0324C12.736 91.6354 3.52 94.9715 0.810665 95.9124C0.554665 95.998 0.362665 96.0621 0.234665 96.1049C0.0853318 96.1477 0.0213318 96.1904 0.0213318 96.1904V86.3746C0.0213318 86.3746 0.106665 86.3746 0.234665 86.3105C0.362665 86.2677 0.554665 86.2035 0.810665 86.118C3.52 85.2626 12.7787 82.1617 23.0613 76.9009C24.1493 76.3449 25.2373 75.7675 26.3253 75.1687C26.6027 75.019 26.9013 74.848 27.1787 74.6983C27.52 74.5058 27.8827 74.2919 28.2453 74.0995C33.3013 71.2125 38.3787 67.8336 42.88 63.9201C44.1813 62.7867 45.44 61.6319 46.656 60.4129C53.248 53.7193 57.8987 45.764 58.048 36.547C58.048 36.0551 58.048 35.5632 58.048 35.0928C58.112 35.3494 58.1547 35.5846 58.1973 35.8413C59.072 40.268 59.008 44.4809 58.1973 48.4372Z" fill="#E0BC82"/>
<path d="M58.1973 35.8415C58.1547 36.0767 58.0907 36.3119 58.048 36.5472C56.3627 43.9465 52.1173 50.4904 46.656 56.1788C45.4613 57.4192 44.2027 58.6381 42.88 59.8143C38.3573 63.8775 33.2587 67.4275 28.2453 70.4642C27.8827 70.678 27.5413 70.8919 27.1787 71.0844C26.9013 71.2554 26.6027 71.4265 26.3253 71.5976C25.2373 72.2392 24.128 72.8593 23.0613 73.4367C12.736 79.0397 3.52 82.3758 0.810665 83.3167C0.554665 83.4023 0.362665 83.4664 0.234665 83.5092C0.0853318 83.552 0.0213318 83.5947 0.0213318 83.5947V73.7789C0.0213318 73.7789 0.106665 73.7789 0.234665 73.7148C0.362665 73.672 0.554665 73.6078 0.810665 73.5223C3.52 72.6669 12.7787 69.566 23.0613 64.3052C24.1493 63.7492 25.2373 63.1718 26.3253 62.573C26.6027 62.4233 26.9013 62.2523 27.1787 62.1026C27.52 61.9101 27.8827 61.6962 28.2453 61.5038C33.3013 58.6168 38.3787 55.2379 42.88 51.3244C44.1813 50.2124 45.44 49.0362 46.656 47.8172C53.5893 40.7815 58.368 32.3129 58.048 22.4971C59.0933 27.2018 59.0507 31.65 58.1973 35.8415Z" fill="#E0BC82"/>
<path d="M50.624 0.192347L54.528 8.3829C54.528 8.3829 54.6773 8.55398 54.784 8.57537L63.7227 10.0082C64 10.0509 64.1067 10.3931 63.8933 10.5856L57.3227 16.8301C57.3227 16.8301 57.1947 17.0225 57.216 17.1295L58.624 26.0899C58.6667 26.3679 58.368 26.5604 58.1333 26.4321L50.24 22.1336C50.112 22.0695 49.9627 22.0908 49.856 22.1764L36.032 35.5208C35.776 35.7774 35.3493 35.478 35.4987 35.1572L42.9013 17.0012C42.9653 16.8515 42.9013 16.6804 42.7733 16.5948L29.184 8.01935C28.8853 7.82688 29.0347 7.37779 29.376 7.39918L45.5893 8.40428C45.7173 8.40428 45.8453 8.34013 45.9093 8.21182L50.0267 0.192347C50.1547 -0.0642756 50.5173 -0.0428904 50.624 0.192347Z" fill="#E0BC82"/>
</g>
<defs>
<clipPath id="clip0_3213_9278">
<rect width="64" height="134" fill="white"/>
</clipPath>
</defs>
</svg>