<svg xmlns="http://www.w3.org/2000/svg" width="190" height="115" viewBox="0 0 190 115" fill="none">
<path fill-rule="evenodd" clip-rule="evenodd" d="M23.3001 29L20.4728 36.5868H59.6449L62.4729 29H23.3001ZM19.0592 40.3787L16.2319 47.9641H55.4039L58.2312 40.3787H19.0592ZM14.8266 51.7575L12 59.342H51.172L53.9971 51.7575H14.8266Z" fill="#00AAFF"/>
<path fill-rule="evenodd" clip-rule="evenodd" d="M95.2774 62.2335V62.3934C97.0673 63.0373 98.7774 64.1629 99.6735 64.8856C102.442 67.1377 103.664 70.1125 103.664 73.9714C103.664 80.3254 100.243 84.9084 94.6253 86.3561C92.9153 86.8379 91.1254 87 87.7851 87H70.771V40.5244H85.8333C88.9274 40.5244 91.0433 40.6843 92.9153 41.1661C98.3715 42.6137 101.954 46.3134 101.954 52.182C101.954 55.3181 100.814 57.9724 98.9416 59.7405C98.1276 60.5443 96.9875 61.5101 95.2774 62.2335ZM80.2151 67.1377V79.3596H86.7286C88.6811 79.3596 90.4733 79.1998 91.7775 77.993C93.0794 76.7863 93.6495 75.2591 93.6495 73.2494C93.6495 71.7222 93.2413 70.2739 92.4273 69.2292C91.0433 67.5407 89.3332 67.1377 86.4033 67.1377H80.2151ZM80.1331 59.0966H85.4252C87.0531 59.0966 87.8671 59.0966 88.6811 58.8557C90.8814 58.2119 92.2654 56.2839 92.2654 53.6288C92.2654 50.4949 90.7993 49.1261 88.6811 48.4837C87.7851 48.2428 86.8913 48.1625 85.0991 48.1625H80.1331V59.0966ZM117.83 87V48.3224H104.234V40.5244H142.013L139.327 48.3224H127.275V87H117.83ZM144.942 87V40.5244H175.557L172.871 48.3224H154.307V58.6148H161.879C167.985 58.6148 171.161 60.0625 173.359 61.9116C175.069 63.3592 178 66.5749 178 72.929C178 79.1998 174.987 82.6563 172.463 84.4259C169.533 86.4349 166.439 87 160.169 87H144.942ZM154.307 79.2005H161.391C164.077 79.2005 165.705 78.5559 166.845 77.1082C167.415 76.3856 168.229 75.0978 168.229 72.6858C168.229 70.2739 167.415 68.5854 165.787 67.3786C164.811 66.6559 163.507 66.2544 161.309 66.2544H154.307V79.2005Z" fill="#0A2896"/>
</svg>