<svg width="275" height="42" viewBox="0 0 275 42" fill="none" xmlns="http://www.w3.org/2000/svg">
<g clip-path="url(#clip0_3213_9164)">
<path d="M122.471 12.5791L128.185 8.35809H109.051V33.6421H128.185V29.4211H114.519V22.9653H126.199V18.7443H114.519V12.5791H122.471ZM94.5965 18.2071H87.9702V12.5791H98.5726L104.288 8.35809H82.5035V33.6421H93.8924C100.27 33.6421 103.957 30.7458 103.957 25.6971C103.957 20.8548 100.643 18.2071 94.5965 18.2071ZM93.6857 29.4211H87.9702V22.4281H93.6857C97.1643 22.4281 98.7793 23.5866 98.7793 25.9456C98.7793 28.3046 97.04 29.4211 93.6857 29.4211ZM143.676 8.35809H133.279V33.6421H138.745V26.4828H143.715C150.343 26.4828 154.483 23.0073 154.483 17.4213C154.483 11.8353 150.344 8.35809 143.676 8.35809ZM143.552 22.2618H138.705V12.5791H143.552C147.072 12.5791 148.976 14.3168 148.976 17.4213C148.976 20.5241 147.072 22.2618 143.552 22.2618ZM73.143 28.1786C71.6927 28.9661 70.0777 29.3791 68.4207 29.3791C63.4935 29.3791 59.9307 25.8616 59.9307 21.0211C59.9307 16.1806 63.4917 12.6613 68.4207 12.6613C70.2046 12.6338 71.9491 13.1859 73.3917 14.2346L77.3258 11.3383L77.0771 11.0898C74.8 9.06159 71.7347 8.02734 68.2561 8.02734C64.4866 8.02734 61.0483 9.31009 58.5645 11.6271C57.3268 12.8196 56.3493 14.2549 55.6934 15.8429C55.0375 17.431 54.7173 19.1373 54.753 20.8548C54.7304 22.5953 55.0558 24.3228 55.7103 25.936C56.3648 27.5491 57.3352 29.0154 58.5645 30.2488C61.1744 32.6901 64.6513 34.0551 68.214 33.9728C72.1481 33.9728 75.5865 32.6078 77.9056 30.1228L74.3849 27.5171L73.143 28.1786ZM220.214 8.40009V33.6823H225.68V23.3381H237.32V33.6823H242.786V8.40009H237.32V18.7863H225.68V8.40009H220.214ZM210.813 33.6823H216.569L205.884 8.40009H200.333L189.442 33.6823H194.951L197.145 28.5933H208.741L210.813 33.6823ZM198.802 24.3723L203.025 14.2346L207.001 24.3723H198.802ZM255.046 23.4623H258.442L266.808 33.6421H273.849L262.667 20.5661L272.441 8.35809H266.186L258.069 19.1993H255.046V8.35809H249.579V33.6421H255.046V23.4623ZM171.383 18.2473V12.6228H185.672V8.40009H165.916V33.6823H177.307C183.684 33.6823 187.37 30.7861 187.37 25.7373C187.37 20.8968 184.057 18.2473 178.011 18.2473H171.383ZM171.383 29.4631V22.4683H177.098C180.579 22.4683 182.194 23.6268 182.194 25.9858C182.194 28.3448 180.495 29.5033 177.098 29.5033H171.383V29.4613V29.4631ZM37.6487 8.19359C38.6419 9.47634 39.4704 10.8833 40.1745 12.3726L21.0401 26.4828L13.0056 21.4341V15.3931L20.9981 20.3998L37.6487 8.19359Z" fill="#21A038"/>
<path d="M4.84666 21.0211C4.84666 20.7306 4.84666 20.4821 4.88694 20.1933L0.0420382 19.9448C0.0420382 20.2773 0 20.6483 0 20.9791C0 26.7716 2.36115 32.0286 6.17086 35.8348L9.60924 32.3996C8.09691 30.9154 6.89647 29.1443 6.07835 27.1904C5.26022 25.2365 4.84262 23.1391 4.84666 21.0211Z" fill="url(#paint0_linear_3213_9164)"/>
<path d="M20.9981 4.88249C21.2871 4.88249 21.5358 4.88249 21.8266 4.92449L22.0753 0.0822422C21.7425 0.0822422 21.3712 0.0419922 21.0401 0.0419922C15.2423 0.0419922 9.98056 2.39924 6.1691 6.20724L9.60923 9.64074C11.0973 8.13326 12.8705 6.93631 14.8256 6.11946C16.7807 5.3026 18.8789 4.88213 20.9981 4.88249Z" fill="url(#paint1_linear_3213_9164)"/>
<path d="M20.9981 37.1577C20.7091 37.1577 20.4604 37.1577 20.1696 37.1174L19.9209 41.9579C20.2537 41.9579 20.625 41.9999 20.9578 41.9999C26.7556 41.9999 32.0156 39.6409 35.8253 35.8347L32.3887 32.3994C29.4898 35.3797 25.4717 37.1577 20.9981 37.1577Z" fill="url(#paint2_linear_3213_9164)"/>
<path d="M30.1099 7.6965L34.2103 4.676C30.4715 1.65292 25.8079 0.00243043 20.9981 0V4.84225C24.3962 4.8825 27.542 5.91675 30.1099 7.6965Z" fill="url(#paint3_linear_3213_9164)"/>
<path d="M42.0382 21.0209C42.0382 19.7381 41.9139 18.4956 41.7054 17.2549L37.1916 20.6061V21.0209C37.1937 23.2774 36.7189 25.509 35.7983 27.5696C34.8776 29.6302 33.532 31.4734 31.8492 32.9786L35.1212 36.5801C37.2994 34.614 39.0406 32.2132 40.232 29.5328C41.4235 26.8524 42.0388 23.952 42.0382 21.0191V21.0209Z" fill="#21A038"/>
<path d="M20.9981 37.1578C18.7395 37.1599 16.5058 36.6856 14.4434 35.7658C12.3809 34.846 10.536 33.5015 9.02945 31.8203L5.42642 35.0893C7.39043 37.2694 9.79221 39.0117 12.4752 40.2024C15.1582 41.3931 18.0623 42.0056 20.9981 42.0001V37.1578Z" fill="url(#paint4_linear_3213_9164)"/>
<path d="M10.189 9.06142L6.91705 5.46167C4.73492 7.42389 2.99114 9.82349 1.79932 12.5041C0.60751 15.1846 -0.00558056 18.086 7.33855e-06 21.0192H4.84666C4.84895 18.7633 5.32572 16.5331 6.24605 14.4731C7.16638 12.4132 8.50973 10.5694 10.189 9.06142Z" fill="url(#paint5_linear_3213_9164)"/>
</g>
<defs>
<linearGradient id="paint0_linear_3213_9164" x1="7.16752" y1="35.2451" x2="1.87056" y2="19.9191" gradientUnits="userSpaceOnUse">
<stop offset="0.144" stop-color="#F2E913"/>
<stop offset="0.304" stop-color="#E7E518"/>
<stop offset="0.582" stop-color="#CADB26"/>
<stop offset="0.891" stop-color="#A3CD39"/>
</linearGradient>
<linearGradient id="paint1_linear_3213_9164" x1="7.55286" y1="7.05249" x2="21.2156" y2="1.83972" gradientUnits="userSpaceOnUse">
<stop offset="0.059" stop-color="#0FA8E0"/>
<stop offset="0.538" stop-color="#0099F9"/>
<stop offset="0.923" stop-color="#0291EB"/>
</linearGradient>
<linearGradient id="paint2_linear_3213_9164" x1="19.6371" y1="39.0424" x2="35.09" y2="35.5469" gradientUnits="userSpaceOnUse">
<stop offset="0.123" stop-color="#A3CD39"/>
<stop offset="0.285" stop-color="#86C339"/>
<stop offset="0.869" stop-color="#21A038"/>
</linearGradient>
<linearGradient id="paint3_linear_3213_9164" x1="20.0032" y1="1.63275" x2="33.2133" y2="5.71352" gradientUnits="userSpaceOnUse">
<stop offset="0.057" stop-color="#0291EB"/>
<stop offset="0.79" stop-color="#0C8ACB"/>
</linearGradient>
<linearGradient id="paint4_linear_3213_9164" x1="6.65779" y1="34.4856" x2="21.0369" y2="39.8631" gradientUnits="userSpaceOnUse">
<stop offset="0.132" stop-color="#F2E913"/>
<stop offset="0.298" stop-color="#EBE716"/>
<stop offset="0.531" stop-color="#D9E01F"/>
<stop offset="0.802" stop-color="#BBD62D"/>
<stop offset="0.983" stop-color="#A3CD39"/>
</linearGradient>
<linearGradient id="paint5_linear_3213_9164" x1="1.81816" y1="21.6054" x2="7.58226" y2="6.59741" gradientUnits="userSpaceOnUse">
<stop offset="0.07" stop-color="#A3CD39"/>
<stop offset="0.26" stop-color="#81C55F"/>
<stop offset="0.922" stop-color="#0FA8E0"/>
</linearGradient>
<clipPath id="clip0_3213_9164">
<rect width="275" height="42" fill="white"/>
</clipPath>
</defs>
</svg>
