<svg width="115" height="115" viewBox="0 0 115 115" fill="none" xmlns="http://www.w3.org/2000/svg">
<mask id="mask0_3213_9176" style="mask-type:luminance" maskUnits="userSpaceOnUse" x="0" y="0" width="115" height="115">
<path d="M0 0H115V115H0V0Z" fill="white"/>
</mask>
<g mask="url(#mask0_3213_9176)">
<path d="M73.6719 0H41.3281C26.8619 0 19.6288 0 14.1034 2.81537C9.24325 5.29178 5.29178 9.24325 2.81537 14.1034C0 19.6288 0 26.8619 0 41.3281V73.6719C0 88.1381 0 95.3712 2.81537 100.897C5.29176 105.757 9.24323 109.708 14.1034 112.185C19.6288 115 26.8619 115 41.3281 115H73.6719C88.1381 115 95.3712 115 100.897 112.185C105.757 109.708 109.708 105.757 112.185 100.897C115 95.3712 115 88.1381 115 73.6719V41.3281C115 26.8619 115 19.6288 112.185 14.1034C109.708 9.24323 105.757 5.29176 100.897 2.81537C95.3712 0 88.1381 0 73.6719 0Z" fill="#EF3124"/>
<path fill-rule="evenodd" clip-rule="evenodd" d="M35.0391 90.9668H80.0732V81.9824H35.0391V90.9668ZM51.4263 52.2592L57.4997 34.208H57.7244L63.4607 52.2592H51.4263ZM65.4824 30.8758C64.2481 27.1939 62.8252 24.2856 57.9494 24.2856C53.0736 24.2856 51.5595 27.182 50.2597 30.8758L36.8618 68.9552H45.7466L48.8395 59.9708H65.9349L68.8028 68.9552H78.25L65.4824 30.8758Z" fill="white"/>
</g>
</svg>
